0
SECTION
2
HEADER
9
$INSUNITS
70
4
9
$ACADVER
1
AC1014
9
$HANDSEED
5
FFFF
0
ENDSEC
0
SECTION
2
TABLES
0
TABLE
2
VPORT
5
8
100
AcDbSymbolTable
0
ENDTAB
0
TABLE
2
LTYPE
5
5
100
AcDbSymbolTable
0
LTYPE
5
14
100
AcDbSymbolTableRecord
100
AcDbLinetypeTableRecord
2
BYBLOCK
70
0
0
LTYPE
5
15
100
AcDbSymbolTableRecord
100
AcDbLinetypeTableRecord
2
BYLAYER
70
0
0
LTYPE
5
16
100
AcDbSymbolTableRecord
100
AcDbLinetypeTableRecord
2
DASHED
70
0
3
Dashed __ __ __ __ __ __ __ __ __ __ __ __ __ _
72
65
73
2
40
0.75
49
0.5
74
0
49
-0.25
74
0
0
ENDTAB
0
TABLE
2
LAYER
5
2
100
AcDbSymbolTable
70
2
0
LAYER
5
50
100
AcDbSymbolTableRecord
100
AcDbLayerTableRecord
2
0
70
0
62
7
6
CONTINUOUS
0
ENDTAB
0
TABLE
2
STYLE
5
3
100
AcDbSymbolTable
70
1
0
STYLE
5
11
100
AcDbSymbolTableRecord
100
AcDbTextStyleTableRecord
2
STANDARD
70
0
0
ENDTAB
0
TABLE
2
VIEW
5
6
100
AcDbSymbolTable
70
0
0
ENDTAB
0
TABLE
2
UCS
5
7
100
AcDbSymbolTable
70
0
0
ENDTAB
0
TABLE
2
APPID
5
9
100
AcDbSymbolTable
70
2
0
APPID
5
12
100
AcDbSymbolTableRecord
100
AcDbRegAppTableRecord
2
ACAD
70
0
0
ENDTAB
0
TABLE
2
DIMSTYLE
5
A
100
AcDbSymbolTable
70
1
0
ENDTAB
0
TABLE
2
BLOCK_RECORD
5
1
100
AcDbSymbolTable
70
1
0
BLOCK_RECORD
5
1F
100
AcDbSymbolTableRecord
100
AcDbBlockTableRecord
2
*MODEL_SPACE
0
BLOCK_RECORD
5
1B
100
AcDbSymbolTableRecord
100
AcDbBlockTableRecord
2
*PAPER_SPACE
0
ENDTAB
0
ENDSEC
0
SECTION
2
BLOCKS
0
BLOCK
5
20
100
AcDbEntity
100
AcDbBlockBegin
2
*MODEL_SPACE
0
ENDBLK
5
21
100
AcDbEntity
100
AcDbBlockEnd
0
BLOCK
5
1C
100
AcDbEntity
100
AcDbBlockBegin
2
*PAPER_SPACE
0
ENDBLK
5
1D
100
AcDbEntity
100
AcDbBlockEnd
0
ENDSEC
0
SECTION
2
ENTITIES
0
POINT
5
100
100
AcDbEntity
8
0
100
AcDbPoint
10
0
20
25
30
0
0
POINT
5
101
100
AcDbEntity
8
0
100
AcDbPoint
10
-466.93619233328138
20
-1.3597171504968704
30
0
0
POINT
5
102
100
AcDbEntity
8
0
100
AcDbPoint
10
70
20
-75
30
0
0
POINT
5
103
100
AcDbEntity
8
0
100
AcDbPoint
10
14.528297728342789
20
-272.35219848556204
30
0
0
POINT
5
104
100
AcDbEntity
8
0
100
AcDbPoint
10
-30
20
-225
30
0
0
POINT
5
105
100
AcDbEntity
8
0
100
AcDbPoint
10
-104.88301616128823
20
-265.21857643661946
30
0
0
POINT
5
106
100
AcDbEntity
8
0
100
AcDbPoint
10
-108.96386201547971
20
-39.514804974298166
30
0
0
POINT
5
107
100
AcDbEntity
8
0
100
AcDbPoint
10
-35
20
-70
30
0
0
POINT
5
108
100
AcDbEntity
8
0
100
AcDbPoint
10
-454.35899081839096
20
-3.7450172445589679e-26
30
0
0
POINT
5
109
100
AcDbEntity
8
0
100
AcDbPoint
10
835.64100918160898
20
6.8877021668377822e-26
30
0
0
POINT
5
110
100
AcDbEntity
8
0
100
AcDbPoint
10
-35
20
-70
30
0
0
POINT
5
111
100
AcDbEntity
8
0
100
AcDbPoint
10
131.11601439483746
20
-138.46693720048134
30
0
0
POINT
5
112
100
AcDbEntity
8
0
100
AcDbPoint
10
835.64100918160898
20
6.8877021668377822e-26
30
0
0
POINT
5
113
100
AcDbEntity
8
0
100
AcDbPoint
10
-45.444670082283416
20
-97.989292696468411
30
0
0
LINE
5
114
100
AcDbEntity
8
0
100
AcDbLine
10
-108.96386201547971
20
-39.514804974298158
30
0
11
-466.93619233328138
21
-1.3597171504968704
31
0
0
LINE
5
115
100
AcDbEntity
8
0
100
AcDbLine
10
-466.93619233328138
20
-1.3597171504968704
30
0
11
-104.88301616128823
21
-265.21857643661946
31
0
0
LINE
5
116
100
AcDbEntity
8
0
100
AcDbLine
10
-104.88301616128823
20
-265.21857643661946
30
0
11
-30
21
-225
31
0
0
LINE
5
117
100
AcDbEntity
8
0
100
AcDbLine
10
-30
20
-225
30
0
11
14.528297728342793
21
-272.35219848556204
31
0
0
LINE
5
118
100
AcDbEntity
8
0
100
AcDbLine
10
14.528297728342789
20
-272.35219848556204
30
0
11
70
21
-75
31
0
0
CIRCLE
5
119
100
AcDbEntity
8
0
100
AcDbCircle
10
-466.93619233328138
20
-1.3597171504968704
30
0
40
101.51273885350319
210
0
220
0
230
1
6
DASHED
0
CIRCLE
5
120
100
AcDbEntity
8
0
100
AcDbCircle
10
-466.93619233328207
20
-1.3597171504967531
30
0
40
370.99999999999994
210
0
220
0
230
1
6
DASHED
0
CIRCLE
5
121
100
AcDbEntity
8
0
100
AcDbCircle
10
-35
20
-70
30
0
40
27.866242038216562
210
0
220
0
230
1
6
DASHED
0
LINE
5
122
100
AcDbEntity
8
0
100
AcDbLine
10
-465.7585568783079
20
-102.86562497991683
30
0
11
-34.676727522164029
21
-97.864366855134861
31
0
6
DASHED
0
LINE
5
123
100
AcDbEntity
8
0
100
AcDbLine
10
-104.88301616128823
20
-265.21857643661946
30
0
11
212.04341977601609
21
-95.002007420812561
31
0
6
DASHED
0
LINE
5
124
100
AcDbEntity
8
0
100
AcDbLine
10
-465.7585568783079
20
-102.86562497991683
30
0
11
835.64100918160898
21
-87.767249891673742
31
0
6
DASHED
0
LINE
5
125
100
AcDbEntity
8
0
100
AcDbLine
10
-466.93619233328207
20
369.64028284950308
30
0
11
835.64100918160989
21
-1075.5219368013445
31
0
6
DASHED
0
LINE
5
126
100
AcDbEntity
8
0
100
AcDbLine
10
-466.93619233328207
20
369.64028284950308
30
0
11
835.64100918160966
21
-737.03380566046985
31
0
6
DASHED
0
LINE
5
127
100
AcDbEntity
8
0
100
AcDbLine
10
-108.96386201547971
20
-39.514804974298158
30
0
11
-35
21
-70
31
0
0
LINE
5
128
100
AcDbEntity
8
0
100
AcDbLine
10
-108.96386201547969
20
-39.514804974298158
30
0
11
835.64100918160932
21
-428.84633710338755
31
0
6
DASHED
0
LINE
5
129
100
AcDbEntity
8
0
100
AcDbLine
10
835.64100918160898
20
6.8877021668377822e-26
30
0
11
835.64100918161046
21
-1827.9616434899242
31
0
0
LINE
5
130
100
AcDbEntity
8
0
100
AcDbLine
10
835.64100918160932
20
-611.96462550029025
30
0
11
-216.34273971693148
21
-611.96462550028059
31
0
0
LINE
5
131
100
AcDbEntity
8
0
100
AcDbLine
10
-30
20
-225
30
0
11
-0.29258224721208731
21
-280.31227708176698
31
0
6
DASHED
0
LINE
5
132
100
AcDbEntity
8
0
100
AcDbLine
10
-466.93619233328207
20
-1.3597171504967531
30
0
11
835.64100918160932
21
-299.98371183025574
31
0
6
DASHED
0
CIRCLE
5
133
100
AcDbEntity
8
0
100
AcDbCircle
10
2.3736568266485847e-12
20
25.000000000010296
30
0
40
59.713375796178347
210
0
220
-0
230
1
0
LINE
5
134
100
AcDbEntity
8
0
100
AcDbLine
10
-13.209625829706615
20
-87.369716141925863
30
0
11
46.693658936345237
21
-12.220820304116614
31
0
6
DASHED
0
LINE
5
135
100
AcDbEntity
8
0
100
AcDbLine
10
-104.88301616128823
20
-265.21857643661946
30
0
11
-108.96386201547971
21
-39.514804974298158
31
0
6
DASHED
0
LINE
5
136
100
AcDbEntity
8
0
100
AcDbLine
10
14.528297728342793
20
-272.35219848556204
30
0
11
-0.29258224721208731
21
-280.31227708176698
31
0
6
DASHED
0
ENDSEC
0
SECTION
2
OBJECTS
0
DICTIONARY
5
C
100
AcDbDictionary
3
ACAD_GROUP
350
D
3
ACAD_MLINESTYLE
350
17
0
DICTIONARY
5
D
100
AcDbDictionary
0
DICTIONARY
5
1A
330
C
100
AcDbDictionary
0
DICTIONARY
5
17
100
AcDbDictionary
0
ENDSEC
0
EOF
