0
SECTION
2
HEADER
9
$INSUNITS
70
4
9
$ACADVER
1
AC1014
9
$HANDSEED
5
FFFF
0
ENDSEC
0
SECTION
2
TABLES
0
TABLE
2
VPORT
5
8
100
AcDbSymbolTable
0
ENDTAB
0
TABLE
2
LTYPE
5
5
100
AcDbSymbolTable
0
LTYPE
5
14
100
AcDbSymbolTableRecord
100
AcDbLinetypeTableRecord
2
BYBLOCK
70
0
0
LTYPE
5
15
100
AcDbSymbolTableRecord
100
AcDbLinetypeTableRecord
2
BYLAYER
70
0
0
LTYPE
5
16
100
AcDbSymbolTableRecord
100
AcDbLinetypeTableRecord
2
DASHED
70
0
3
Dashed __ __ __ __ __ __ __ __ __ __ __ __ __ _
72
65
73
2
40
0.75
49
0.5
74
0
49
-0.25
74
0
0
ENDTAB
0
TABLE
2
LAYER
5
2
100
AcDbSymbolTable
70
2
0
LAYER
5
50
100
AcDbSymbolTableRecord
100
AcDbLayerTableRecord
2
0
70
0
62
7
6
CONTINUOUS
0
ENDTAB
0
TABLE
2
STYLE
5
3
100
AcDbSymbolTable
70
1
0
STYLE
5
11
100
AcDbSymbolTableRecord
100
AcDbTextStyleTableRecord
2
STANDARD
70
0
0
ENDTAB
0
TABLE
2
VIEW
5
6
100
AcDbSymbolTable
70
0
0
ENDTAB
0
TABLE
2
UCS
5
7
100
AcDbSymbolTable
70
0
0
ENDTAB
0
TABLE
2
APPID
5
9
100
AcDbSymbolTable
70
2
0
APPID
5
12
100
AcDbSymbolTableRecord
100
AcDbRegAppTableRecord
2
ACAD
70
0
0
ENDTAB
0
TABLE
2
DIMSTYLE
5
A
100
AcDbSymbolTable
70
1
0
ENDTAB
0
TABLE
2
BLOCK_RECORD
5
1
100
AcDbSymbolTable
70
1
0
BLOCK_RECORD
5
1F
100
AcDbSymbolTableRecord
100
AcDbBlockTableRecord
2
*MODEL_SPACE
0
BLOCK_RECORD
5
1B
100
AcDbSymbolTableRecord
100
AcDbBlockTableRecord
2
*PAPER_SPACE
0
ENDTAB
0
ENDSEC
0
SECTION
2
BLOCKS
0
BLOCK
5
20
100
AcDbEntity
100
AcDbBlockBegin
2
*MODEL_SPACE
0
ENDBLK
5
21
100
AcDbEntity
100
AcDbBlockEnd
0
BLOCK
5
1C
100
AcDbEntity
100
AcDbBlockBegin
2
*PAPER_SPACE
0
ENDBLK
5
1D
100
AcDbEntity
100
AcDbBlockEnd
0
ENDSEC
0
SECTION
2
ENTITIES
0
POINT
5
100
100
AcDbEntity
8
0
100
AcDbPoint
10
0
20
0
30
0
0
POINT
5
101
100
AcDbEntity
8
0
100
AcDbPoint
10
2.3736568266485847e-12
20
25.000000000010296
30
0
0
POINT
5
102
100
AcDbEntity
8
0
100
AcDbPoint
10
835.64100918160898
20
6.8877021668377822e-26
30
0
0
POINT
5
103
100
AcDbEntity
8
0
100
AcDbPoint
10
-173.21231184472367
20
-725.26494988463332
30
0
0
POINT
5
104
100
AcDbEntity
8
0
100
AcDbPoint
10
522.98322129265716
20
-553.29658201760242
30
0
0
POINT
5
105
100
AcDbEntity
8
0
100
AcDbPoint
10
218.48608954501981
20
-433.58781308100328
30
0
0
POINT
5
106
100
AcDbEntity
8
0
100
AcDbPoint
10
265.36621051761983
20
-248.52502344965527
30
0
0
POINT
5
107
100
AcDbEntity
8
0
100
AcDbPoint
10
-47.843884896041132
20
-182.23463315927859
30
0
0
LINE
5
108
100
AcDbEntity
8
0
100
AcDbLine
10
835.64100918160898
20
6.8877021668377822e-26
30
0
11
591.54121729028248
21
-511.76585622588044
31
0
0
LINE
5
109
100
AcDbEntity
8
0
100
AcDbLine
10
550.96644258531433
20
-494.6285385349176
30
0
11
495
21
-611.96462550028718
31
0
0
LINE
5
110
100
AcDbEntity
8
0
100
AcDbLine
10
2.3736568266485847e-12
20
25.000000000010296
30
0
11
-95.687769792082292
21
-389.46926631856763
31
0
0
LINE
5
111
100
AcDbEntity
8
0
100
AcDbLine
10
507.91533290430408
20
-584.88706696981797
30
0
11
-70.943153814263781
21
-282.28855919219018
31
0
0
LINE
5
112
100
AcDbEntity
8
0
100
AcDbLine
10
530.73242103523989
20
-537.05004689932105
30
0
11
2.3736568266485847e-12
21
40.000000000010296
31
0
0
LINE
5
113
100
AcDbEntity
8
0
100
AcDbLine
10
-454.35899081839096
20
-3.7450172445589679e-26
30
0
11
835.64100918160898
21
6.8877021668377822e-26
31
0
6
DASHED
0
LINE
5
114
100
AcDbEntity
8
0
100
AcDbLine
10
-95.687769792082292
20
-389.46926631856763
30
0
11
-173.21231184472367
21
-725.26494988463332
31
0
6
DASHED
0
LINE
5
115
100
AcDbEntity
8
0
100
AcDbLine
10
835.64100918160932
20
-611.96462550029025
30
0
11
-216.34273971693148
21
-611.96462550028059
31
0
6
DASHED
0
LINE
5
116
100
AcDbEntity
8
0
100
AcDbLine
10
550.96644258531433
20
-494.6285385349176
30
0
11
551.82746477893431
21
-492.82336796621956
31
0
0
LINE
5
117
100
AcDbEntity
8
0
100
AcDbLine
10
551.82746477893431
20
-492.82336796621956
30
0
11
591.54121729028248
21
-511.76585622588044
31
0
0
CIRCLE
5
118
100
AcDbEntity
8
0
100
AcDbCircle
10
835.64100918160898
20
6.8877021668377822e-26
30
0
40
371
210
0
220
0
230
1
6
DASHED
0
CIRCLE
5
119
100
AcDbEntity
8
0
100
AcDbCircle
10
2.3736568266485847e-12
20
25.000000000010296
30
0
40
59.713375796178347
210
0
220
0
230
1
6
DASHED
0
LINE
5
120
100
AcDbEntity
8
0
100
AcDbLine
10
835.64100918160898
20
6.8877021668377822e-26
30
0
11
835.64100918161046
21
-1827.9616434899242
31
0
6
DASHED
0
LINE
5
121
100
AcDbEntity
8
0
100
AcDbLine
10
13.203085315455819
20
-2.4962432332636637
30
0
11
-49.069234911400628
21
-272.22729593167833
31
0
6
DASHED
0
LINE
5
122
100
AcDbEntity
8
0
100
AcDbLine
10
548.67310704792135
20
-584.69734666505565
30
0
11
13.203085315455819
21
-2.4962432332636637
31
0
6
DASHED
0
LINE
5
123
100
AcDbEntity
8
0
100
AcDbLine
10
548.67310704792135
20
-584.69734666505565
30
0
11
-49.069234911400628
21
-272.22729593167833
31
0
6
DASHED
0
LINE
5
124
100
AcDbEntity
8
0
100
AcDbLine
10
-18.561751798607958
20
29.285308643148824
30
0
11
-114.24960599974347
21
-385.18432329217046
31
0
6
DASHED
0
LINE
5
125
100
AcDbEntity
8
0
100
AcDbLine
10
530.73242103523989
20
-537.05004689932105
30
0
11
93.961454458547919
21
-31.364419010064964
31
0
0
CIRCLE
5
126
100
AcDbEntity
8
0
100
AcDbCircle
10
2.3736568266485847e-12
20
25.000000000010296
30
0
40
26
210
0
220
0
230
1
6
DASHED
0
LINE
5
127
100
AcDbEntity
8
0
100
AcDbLine
10
41.888571175080109
20
7.4242959711912739
30
0
11
14.521139933260613
21
19.713466294052047
31
0
0
ARC
5
128
100
AcDbEntity
8
0
100
AcDbCircle
10
-19.557280439224005
20
-129.41286023790673
30
0
40
150.00000000000054
210
0
220
-0
230
1
100
AcDbArc
50
40.817839959019977
51
65.817839959020006
0
LINE
5
129
100
AcDbEntity
8
0
100
AcDbLine
10
6.717516778208612
20
2.3351474555125673
30
0
11
22.324763088312622
21
37.091785132591539
31
0
0
ENDSEC
0
SECTION
2
OBJECTS
0
DICTIONARY
5
C
100
AcDbDictionary
3
ACAD_GROUP
350
D
3
ACAD_MLINESTYLE
350
17
0
DICTIONARY
5
D
100
AcDbDictionary
0
DICTIONARY
5
1A
330
C
100
AcDbDictionary
0
DICTIONARY
5
17
100
AcDbDictionary
0
ENDSEC
0
EOF
